<?xml version="1.0" encoding="UTF-8"?>
<svg id="Layer_2" xmlns="http://www.w3.org/2000/svg" version="1.1" viewBox="0 0 121 121">
  <!-- Generator: Adobe Illustrator 29.6.0, SVG Export Plug-In . SVG Version: 2.1.1 Build 207)  -->
  <defs>
    <style>
      .st0 {
        fill: #f2f2f3;
      }

      .st1 {
        fill: #a51e23;
      }
    </style>
  </defs>
  <g id="Layer_2-2">
    <g id="BS11px">
      <g>
        <path class="st0" d="M60.5,117c-31.1,0-56.5-25.3-56.5-56.5S29.4,4,60.5,4s56.5,25.4,56.5,56.5-25.3,56.5-56.5,56.5Z"/>
        <path class="st1" d="M60.5,8c28.9,0,52.5,23.5,52.5,52.5s-23.6,52.5-52.5,52.5S8,89.4,8,60.5,31.5,8,60.5,8M60.5,0C27.1,0,0,27.1,0,60.5s27.1,60.5,60.5,60.5,60.5-27.1,60.5-60.5S93.9,0,60.5,0h0Z"/>
      </g>
    </g>
  </g>
  <rect class="st1" x="39.4" y="16.7" width="43.2" height="87.5" rx="7.4" ry="7.4"/>
  <rect class="st0" x="42.6" y="27.2" width="37.7" height="66.2"/>
  <circle class="st0" cx="61.1" cy="98.7" r="3.3"/>
  <path class="st0" d="M64.6,22.8h-7c-.2,0-.4-.3-.4-.5s.2-.5.4-.5h7c.2,0,.4.3.4.5,0,.2-.1.5-.4.6Z"/>
  <circle class="st0" cx="61.1" cy="19.5" r=".4"/>
  <circle class="st0" cx="54.4" cy="22.3" r=".7"/>
</svg>